<svg width="1002" height="575" viewBox="0 0 1002 575" fill="none" xmlns="http://www.w3.org/2000/svg">
<path d="M604.1 6.60004V7.40002L307.3 571.7C306.1 573.3 304.7 574.2 303 574.2C300.1 574.2 298.4 573.4 297.8 571.7L0.900002 7.50003V6.70004L0 5.90002V5.10004V4.30005L0.900002 3.50003V1.90002H1.8V1.10004H3.5V0.300049H195.3C196.5 0.300049 197.6 0.800024 198.8 1.90002H199.7V2.70004L303 197.9L405.4 2.70004C405.4 2.20004 406 1.60004 407.1 1.10004C408.3 0.600037 409.1 0.300049 409.7 0.300049H601.5L602.4 1.10004H603.3V1.90002H604.2V3.50003L605.1 4.30005V5.10004V6.70004H604.1V6.60004ZM60.8 9.90002L302.9 467.9L544.2 9.90002H507.7L307.3 391.3C306.1 392.9 304.7 393.8 303 393.8C300.1 393.8 298.4 393 297.8 391.3L97.3 9.90002H60.8ZM108.5 9.90002L302.9 378.1L496.4 9.90002H460.8L307.3 300.7C306.1 302.9 304.7 304 303 304C300.7 304 299 302.9 297.8 300.7L145 9.90002H108.5ZM302.9 213.4C300 213.4 298.3 212.6 297.7 210.9L191.8 9.90002H156.2L302.9 288.3L448.7 9.90002H413.1L307.2 210.9C306.1 212.6 304.7 213.4 302.9 213.4ZM592 9.90002H555.6L307.3 481.1C306.1 482.7 304.7 483.6 303 483.6C300.1 483.6 298.4 482.8 297.8 481.1L49.5 9.90002H13.9L302.9 558.5L592 9.90002Z" fill="black" stroke="black" stroke-width="3.52734e-05" stroke-linecap="round" stroke-linejoin="round"/>
<path d="M1001.9 570.9L1001 571.7V572.5H1000.1V573.3H999.2V574.1H399.6V573.3H398.7L397.8 572.5V571.7H397V570V567.5H397.9L694.7 2.5C695.3 0.9 696.7 0 699 0C701.3 0 703 0.8 704.2 2.5C706.5 7.4 712.7 19.4 722.9 38.4C733 57.4 745.2 80.6 759.4 108.1C773.6 135.6 789.5 166 807.1 199.2C824.7 232.5 842.5 266.2 860.5 300.2C878.4 334.3 895.9 367.4 913 399.6C930.1 431.8 945.1 460.4 958.1 485.4C971.1 510.4 981.7 530.5 989.8 545.6C997.9 560.7 1001.9 568.3 1001.9 568.3V569.1V570.9ZM845.7 565.1L699.1 286.3L616.7 443.8H734.7L719 413.3H676.5L674.8 412.5H673.9V411.7H673V410.9H672.1V408.4V405.9L694.7 363C695.3 361.3 696.7 360.5 699 360.5C701.3 360.5 703 361.3 704.2 363L725.9 405.9H726.8C740.1 432.8 753.8 459.5 768 485.9C782.2 512.3 796.2 538.7 810.1 565.1H845.7ZM699.1 376.2L685.2 403.4H713.8L699.1 376.2ZM893.5 565.1L699.1 195.5L548 484.2H756.3L739.8 453.7H607.9V452.9H605.3V452.1H604.4V451.3H603.5V448.8H602.6V448H603.5V446.4L694.7 273.1C695.3 271.5 696.7 270.6 699 270.6C701.3 270.6 703 271.4 704.2 273.1L857 565.1H893.5ZM941.2 565.1L699.1 105.6L478.7 524.6H777.2L760.7 493.3H536.8V492.5H535.9V491.7H535V490.9L534.1 490.1V489.3V487.6H535V486.8L694.7 183.2C695.3 181.6 696.7 180.7 699 180.7C701.3 180.7 703 181.5 704.2 183.2L904.7 565.1H941.2ZM988.1 565.1L699.1 15.7L410 565.1H798.8L782.3 533.8H468.2V533H467.3V532.1H466.4V531.3L465.5 530.5V528.9V527.1H466.4L694.7 92.4C695.3 90.7 696.7 89.9 699 89.9C701.3 89.9 703 90.7 704.2 92.4L952.5 565.1H988.1Z" fill="black" stroke="black" stroke-width="3.52734e-05" stroke-linecap="round" stroke-linejoin="round"/>
</svg>
